<?xml version="1.0" standalone="no"?>
<!DOCTYPE svg PUBLIC "-//W3C//DTD SVG 20010904//EN"
 "http://www.w3.org/TR/2001/REC-SVG-20010904/DTD/svg10.dtd">
<svg version="1.0" xmlns="http://www.w3.org/2000/svg"
 width="640.000000pt" height="640.000000pt" viewBox="0 0 640.000000 640.000000"
 preserveAspectRatio="xMidYMid meet">
<metadata>
Created by potrace 1.11, written by Peter Selinger 2001-2013
</metadata>
<g transform="translate(0.000000,640.000000) scale(0.100000,-0.100000)"
fill="#000000" stroke="none">
<path d="M1690 5440 c0 -3 -51 -5 -113 -5 -112 -1 -156 -5 -212 -23 -43 -14
-129 -54 -136 -65 -3 -5 -9 -8 -13 -8 -12 3 -57 -33 -114 -89 -51 -51 -101
-120 -129 -180 -13 -26 -138 -345 -203 -515 -21 -56 -45 -116 -54 -135 -8 -19
-35 -87 -59 -150 -25 -63 -48 -124 -52 -135 -5 -11 -9 -22 -10 -25 -1 -3 -7
-18 -14 -35 -6 -16 -30 -77 -53 -135 -48 -122 -50 -126 -86 -135 -77 -19 -188
-89 -261 -165 -68 -69 -113 -144 -149 -242 l-27 -73 -3 -615 c-2 -338 0 -634
3 -658 5 -32 17 -54 45 -83 21 -21 44 -39 51 -40 8 0 23 -2 34 -4 11 -2 38 -4
60 -5 22 0 72 -1 110 -1 39 -1 76 -1 83 0 27 2 39 3 92 2 30 0 62 0 70 0 64 2
90 -5 91 -25 2 -58 15 -165 23 -186 3 -8 7 -26 10 -40 10 -61 63 -177 122
-270 52 -81 69 -103 118 -148 21 -21 48 -46 60 -57 91 -87 293 -190 415 -210
19 -3 38 -8 43 -11 4 -3 56 -7 114 -10 58 -2 110 -7 115 -10 5 -3 9 -2 9 3 0
4 17 9 37 11 46 3 63 6 143 26 152 39 333 146 435 256 22 23 48 50 58 59 9 8
17 19 17 23 0 4 9 18 20 31 46 53 113 193 141 294 28 100 29 109 34 188 l3 70
49 2 c147 7 193 7 193 3 0 -3 28 -4 62 -2 84 4 160 2 170 -4 4 -3 8 0 8 6 0 6
4 9 9 6 7 -5 83 -7 141 -5 8 0 40 0 70 0 30 0 63 -1 73 0 9 0 33 0 52 0 19 0
41 0 48 0 29 1 134 0 157 -1 14 -1 32 -2 40 -1 21 1 116 0 168 -1 35 -1 42 -4
43 -22 3 -62 9 -123 14 -145 4 -15 9 -39 12 -56 6 -38 60 -179 86 -225 11 -19
25 -44 31 -55 23 -43 127 -168 171 -207 92 -80 208 -149 325 -193 25 -9 56
-19 70 -21 14 -3 32 -7 40 -10 32 -12 119 -19 225 -18 118 1 134 3 235 28 149
39 334 146 430 250 19 21 42 46 51 55 27 28 89 118 89 129 0 6 4 12 8 14 10 4
72 135 72 153 0 8 4 16 9 19 8 5 22 62 23 93 0 5 4 18 9 30 4 12 11 55 14 95
3 40 9 76 13 79 9 8 92 17 92 9 0 -3 29 -5 65 -5 36 0 65 4 65 8 0 5 4 6 8 3
10 -6 134 -8 228 -4 60 3 78 8 109 32 68 52 67 43 62 585 -2 267 -6 495 -9
506 -3 11 -13 48 -22 83 -83 317 -331 573 -651 670 -38 12 -84 23 -100 25 -17
2 -35 5 -40 8 -6 3 -45 5 -87 4 -43 0 -78 2 -78 5 0 3 -31 4 -70 3 -38 -1 -70
2 -70 6 0 4 -8 16 -18 27 -9 10 -33 39 -52 64 -19 25 -37 47 -40 50 -3 3 -30
37 -60 75 -30 39 -59 75 -65 81 -5 6 -21 26 -35 44 -23 31 -112 141 -135 166
-5 7 -19 24 -30 40 -11 15 -36 47 -55 70 -19 23 -45 54 -57 70 -22 29 -120
151 -151 189 -10 11 -30 38 -47 60 -16 22 -36 46 -45 55 -8 9 -24 29 -35 44
-11 16 -25 33 -30 40 -21 23 -111 134 -133 163 -135 178 -247 271 -387 318
-66 22 -77 24 -165 31 -104 8 -180 10 -180 4 0 -3 -25 -5 -55 -5 -30 0 -55 2
-55 5 0 4 -46 4 -140 0 -14 -1 -55 -1 -92 -1 -38 0 -74 0 -80 0 -7 0 -33 0
-58 0 -25 0 -53 1 -62 0 -10 0 -33 1 -50 1 -18 0 -61 -1 -96 -2 -34 -2 -62 -1
-62 2 0 4 -58 4 -140 0 -14 -1 -68 -1 -120 0 -52 1 -97 1 -100 0 -17 -4 -120
-4 -120 0 0 3 -28 4 -62 2 -35 -1 -67 -3 -73 -3 -5 0 -28 0 -50 0 -22 1 -49 1
-60 1 -11 -1 -68 0 -127 0 -59 1 -112 -2 -118 -5 -5 -3 -10 -3 -10 2 0 4 -29
8 -65 8 -36 0 -65 -2 -65 -5z m100 -640 c28 4 50 2 50 -2 0 -5 4 -7 8 -4 7 4
110 8 152 5 8 -1 31 -1 50 0 19 1 44 1 55 1 11 -1 43 -1 70 -1 151 0 151 0
146 -31 -1 -12 -3 -298 -2 -348 0 -15 0 -137 -1 -155 0 -5 1 -72 2 -147 1 -76
-1 -142 -4 -147 -4 -5 -2 -12 4 -16 6 -4 7 -11 4 -17 -4 -6 -6 -30 -6 -53 l2
-42 -81 -1 c-44 -1 -84 -4 -90 -7 -5 -4 -9 -3 -9 2 0 4 -29 8 -65 8 -36 0 -65
-2 -65 -5 0 -3 -21 -3 -47 0 -27 3 -69 3 -95 -1 -27 -3 -48 -3 -48 0 0 3 -29
6 -65 6 -36 0 -65 -2 -65 -5 0 -3 -21 -3 -47 0 -27 3 -69 3 -95 -1 -27 -3 -48
-3 -48 0 0 3 -29 6 -65 6 -36 0 -65 -2 -65 -5 0 -3 -44 -4 -97 -3 -54 1 -97 5
-96 10 2 9 14 46 18 53 3 8 15 38 57 145 21 55 46 114 53 132 8 17 15 36 15
42 0 6 4 19 10 29 5 9 26 58 45 107 20 50 40 99 45 110 4 11 20 52 35 90 15
39 33 84 40 100 7 17 19 47 26 68 7 20 17 37 21 37 4 0 7 3 7 8 -5 28 5 31 94
34 50 2 93 0 95 -3 1 -3 25 -2 52 1z m1125 0 c25 4 45 4 45 1 0 -5 43 -5 140
-1 14 1 55 1 93 1 37 0 73 0 80 0 6 0 32 0 57 0 25 0 53 -1 63 0 9 0 32 -1 50
-1 17 0 60 1 95 2 34 2 62 1 62 -2 0 -3 20 -4 43 -2 41 4 46 1 85 -45 49 -57
98 -117 132 -163 14 -18 30 -38 35 -44 6 -6 46 -56 90 -111 44 -55 85 -107 92
-115 11 -13 177 -222 261 -329 15 -18 34 -41 42 -51 8 -10 24 -29 34 -42 10
-12 25 -30 33 -40 13 -15 10 -16 -36 -16 -28 -1 -55 -3 -60 -7 -5 -3 -12 -1
-15 3 -3 5 -26 6 -51 2 -25 -4 -47 -4 -50 -1 -2 4 -33 4 -70 1 -36 -3 -71 -3
-76 1 -6 3 -28 3 -49 -1 -21 -4 -43 -4 -49 -1 -6 4 -38 4 -71 1 -34 -3 -63 -3
-65 1 -3 3 -25 3 -49 -1 -25 -4 -50 -4 -55 0 -6 3 -38 3 -71 0 -33 -3 -65 -3
-71 1 -6 3 -28 3 -49 -1 -21 -4 -43 -4 -49 -1 -6 4 -38 4 -71 1 -34 -3 -63 -3
-65 1 -3 3 -25 3 -49 -1 -25 -4 -50 -4 -55 0 -6 3 -38 3 -71 0 -33 -3 -65 -3
-71 0 -5 4 -30 4 -55 0 -24 -4 -46 -4 -49 -1 -2 4 -33 4 -69 1 -36 -3 -66 -3
-66 0 0 3 -20 4 -44 2 -38 -3 -45 -1 -45 15 0 10 0 51 -1 90 -1 40 1 77 5 83
3 5 1 10 -5 10 -6 0 -8 5 -5 11 4 5 6 34 5 62 0 29 -1 57 -1 62 0 6 0 60 0
120 0 61 0 117 0 125 0 8 0 49 0 90 0 86 0 86 1 202 l0 87 27 3 c16 2 32 1 36
-3 4 -3 28 -3 52 1z m-1164 -2425 c140 -46 266 -175 308 -315 20 -65 22 -201
4 -258 -8 -26 -16 -54 -18 -63 -6 -29 -72 -124 -116 -167 -40 -38 -179 -122
-179 -107 0 3 -10 0 -22 -6 -34 -18 -178 -20 -244 -3 -157 41 -290 163 -339
312 -21 64 -28 191 -14 247 5 22 11 47 13 56 11 44 64 129 113 180 60 63 142
111 224 133 70 18 201 14 270 -9z m3206 -3 c146 -56 253 -164 298 -300 21 -64
28 -191 14 -247 -5 -22 -11 -48 -14 -58 -11 -46 -73 -142 -126 -192 -60 -57
-151 -107 -226 -123 -62 -14 -191 -7 -253 13 -141 46 -267 175 -309 315 -20
65 -22 201 -4 258 8 26 16 54 18 63 6 29 72 124 116 166 40 40 137 99 176 108
10 3 34 9 53 14 58 15 199 6 257 -17z"/>
</g>
</svg>
